<mxfile host="app.diagrams.net" modified="2022-04-23T18:57:29.062Z" agent="5.0 (Windows NT 10.0; Win64; x64) AppleWebKit/537.36 (KHTML, like Gecko) Chrome/100.0.4896.127 Safari/537.36" etag="YO9dt0IPTGs_HO9WRVB-" version="17.4.6" type="github">
  <diagram id="gzbH8JQFqSnCpGRv4bHv" name="Page-1">
    <mxGraphModel dx="689" dy="739" grid="1" gridSize="10" guides="1" tooltips="1" connect="1" arrows="1" fold="1" page="1" pageScale="1" pageWidth="850" pageHeight="1100" math="0" shadow="0">
      <root>
        <mxCell id="0" />
        <mxCell id="1" parent="0" />
        <mxCell id="2uLXDE0wRPPpGkwr0ij0-1" value="&lt;font style=&quot;font-size: 40px&quot;&gt;the PARTITIONING&lt;br&gt;of REPARATIONS&lt;br&gt;into&lt;br&gt;&lt;/font&gt;" style="text;html=1;align=center;verticalAlign=middle;resizable=0;points=[];autosize=1;strokeColor=none;fillColor=none;" vertex="1" parent="1">
          <mxGeometry x="150" y="140" width="360" height="80" as="geometry" />
        </mxCell>
        <mxCell id="2uLXDE0wRPPpGkwr0ij0-2" value="" style="shape=waypoint;sketch=0;fillStyle=solid;size=6;pointerEvents=1;points=[];fillColor=none;resizable=0;rotatable=0;perimeter=centerPerimeter;snapToPoint=1;fontSize=40;strokeWidth=3;" vertex="1" parent="1">
          <mxGeometry x="280" y="240" width="40" height="40" as="geometry" />
        </mxCell>
        <mxCell id="2uLXDE0wRPPpGkwr0ij0-3" value="" style="shape=waypoint;sketch=0;fillStyle=solid;size=6;pointerEvents=1;points=[];fillColor=none;resizable=0;rotatable=0;perimeter=centerPerimeter;snapToPoint=1;fontSize=40;strokeWidth=3;" vertex="1" parent="1">
          <mxGeometry x="310" y="260" width="40" height="40" as="geometry" />
        </mxCell>
        <mxCell id="2uLXDE0wRPPpGkwr0ij0-4" value="" style="shape=waypoint;sketch=0;fillStyle=solid;size=6;pointerEvents=1;points=[];fillColor=none;resizable=0;rotatable=0;perimeter=centerPerimeter;snapToPoint=1;fontSize=40;strokeWidth=3;" vertex="1" parent="1">
          <mxGeometry x="340" y="240" width="40" height="40" as="geometry" />
        </mxCell>
        <mxCell id="2uLXDE0wRPPpGkwr0ij0-5" value="&lt;font style=&quot;font-size: 20px&quot;&gt;ABSTRACT&lt;/font&gt;" style="text;html=1;align=center;verticalAlign=middle;resizable=0;points=[];autosize=1;strokeColor=none;fillColor=none;fontSize=40;" vertex="1" parent="1">
          <mxGeometry x="365" y="290" width="120" height="60" as="geometry" />
        </mxCell>
        <mxCell id="2uLXDE0wRPPpGkwr0ij0-6" value="VIRTUAL" style="text;html=1;align=center;verticalAlign=middle;resizable=0;points=[];autosize=1;strokeColor=none;fillColor=none;fontSize=20;" vertex="1" parent="1">
          <mxGeometry x="320" y="380" width="100" height="30" as="geometry" />
        </mxCell>
        <mxCell id="2uLXDE0wRPPpGkwr0ij0-7" value="REALIZED" style="text;html=1;align=center;verticalAlign=middle;resizable=0;points=[];autosize=1;strokeColor=none;fillColor=none;fontSize=20;" vertex="1" parent="1">
          <mxGeometry x="190" y="350" width="110" height="30" as="geometry" />
        </mxCell>
        <mxCell id="2uLXDE0wRPPpGkwr0ij0-8" value="" style="rounded=0;whiteSpace=wrap;html=1;fontSize=20;strokeWidth=2;fillColor=none;" vertex="1" parent="1">
          <mxGeometry x="363" y="311" width="125" height="30" as="geometry" />
        </mxCell>
        <mxCell id="2uLXDE0wRPPpGkwr0ij0-9" value="" style="rounded=0;whiteSpace=wrap;html=1;fontSize=20;strokeWidth=2;fillColor=none;" vertex="1" parent="1">
          <mxGeometry x="182.5" y="350" width="125" height="30" as="geometry" />
        </mxCell>
        <mxCell id="2uLXDE0wRPPpGkwr0ij0-10" value="" style="rounded=0;whiteSpace=wrap;html=1;fontSize=20;strokeWidth=2;fillColor=none;" vertex="1" parent="1">
          <mxGeometry x="320" y="380" width="96.25" height="30" as="geometry" />
        </mxCell>
        <mxCell id="2uLXDE0wRPPpGkwr0ij0-11" value="" style="endArrow=none;html=1;fontSize=20;exitX=0.5;exitY=0;exitDx=0;exitDy=0;curved=1;" edge="1" parent="1" source="2uLXDE0wRPPpGkwr0ij0-9" target="2uLXDE0wRPPpGkwr0ij0-2">
          <mxGeometry width="50" height="50" relative="1" as="geometry">
            <mxPoint x="330" y="340" as="sourcePoint" />
            <mxPoint x="380" y="290" as="targetPoint" />
            <Array as="points">
              <mxPoint x="260" y="310" />
            </Array>
          </mxGeometry>
        </mxCell>
        <mxCell id="2uLXDE0wRPPpGkwr0ij0-12" value="" style="endArrow=none;html=1;fontSize=20;curved=1;exitX=0.328;exitY=-0.143;exitDx=0;exitDy=0;exitPerimeter=0;entryX=0.554;entryY=0.621;entryDx=0;entryDy=0;entryPerimeter=0;" edge="1" parent="1" source="2uLXDE0wRPPpGkwr0ij0-10" target="2uLXDE0wRPPpGkwr0ij0-3">
          <mxGeometry width="50" height="50" relative="1" as="geometry">
            <mxPoint x="330" y="340" as="sourcePoint" />
            <mxPoint x="380" y="290" as="targetPoint" />
            <Array as="points">
              <mxPoint x="350" y="330" />
            </Array>
          </mxGeometry>
        </mxCell>
        <mxCell id="2uLXDE0wRPPpGkwr0ij0-13" value="" style="endArrow=none;html=1;fontSize=20;curved=1;entryX=0.575;entryY=0.679;entryDx=0;entryDy=0;entryPerimeter=0;exitX=0.25;exitY=0;exitDx=0;exitDy=0;" edge="1" parent="1" source="2uLXDE0wRPPpGkwr0ij0-8" target="2uLXDE0wRPPpGkwr0ij0-4">
          <mxGeometry width="50" height="50" relative="1" as="geometry">
            <mxPoint x="330" y="340" as="sourcePoint" />
            <mxPoint x="380" y="290" as="targetPoint" />
            <Array as="points">
              <mxPoint x="380" y="280" />
            </Array>
          </mxGeometry>
        </mxCell>
        <mxCell id="2uLXDE0wRPPpGkwr0ij0-14" value="" style="endArrow=none;html=1;fontSize=20;curved=1;" edge="1" parent="1">
          <mxGeometry width="50" height="50" relative="1" as="geometry">
            <mxPoint x="220" y="480" as="sourcePoint" />
            <mxPoint x="330" y="480" as="targetPoint" />
            <Array as="points">
              <mxPoint x="240" y="460" />
              <mxPoint x="300" y="490" />
            </Array>
          </mxGeometry>
        </mxCell>
        <mxCell id="2uLXDE0wRPPpGkwr0ij0-18" value="" style="endArrow=none;html=1;fontSize=20;curved=1;" edge="1" parent="1">
          <mxGeometry width="50" height="50" relative="1" as="geometry">
            <mxPoint x="340" y="480" as="sourcePoint" />
            <mxPoint x="460" y="480" as="targetPoint" />
            <Array as="points">
              <mxPoint x="360" y="470" />
              <mxPoint x="430" y="490" />
            </Array>
          </mxGeometry>
        </mxCell>
        <mxCell id="2uLXDE0wRPPpGkwr0ij0-19" value="" style="endArrow=none;html=1;fontSize=20;curved=1;" edge="1" parent="1">
          <mxGeometry width="50" height="50" relative="1" as="geometry">
            <mxPoint x="330" y="500" as="sourcePoint" />
            <mxPoint x="330" y="460" as="targetPoint" />
          </mxGeometry>
        </mxCell>
        <mxCell id="2uLXDE0wRPPpGkwr0ij0-20" value="" style="endArrow=none;html=1;fontSize=20;curved=1;" edge="1" parent="1">
          <mxGeometry width="50" height="50" relative="1" as="geometry">
            <mxPoint x="340" y="500" as="sourcePoint" />
            <mxPoint x="340" y="460" as="targetPoint" />
          </mxGeometry>
        </mxCell>
        <mxCell id="2uLXDE0wRPPpGkwr0ij0-21" value="the SPLITTING of&amp;nbsp;&lt;br&gt;CONTRACTS" style="text;html=1;align=center;verticalAlign=middle;resizable=0;points=[];autosize=1;strokeColor=none;fillColor=none;fontSize=20;" vertex="1" parent="1">
          <mxGeometry x="250" y="500" width="180" height="50" as="geometry" />
        </mxCell>
      </root>
    </mxGraphModel>
  </diagram>
</mxfile>
